<svg width="550" height="550" viewBox="0 0 550 550" fill="none" xmlns="http://www.w3.org/2000/svg">
<path d="M215.377 393.223L162.772 342.144L144.839 413.241L215.377 393.223ZM161.791 373.163C113.164 358.725 80.369 342.166 59.4806 325.332C38.6529 308.547 29.978 291.777 28.6385 276.661C27.2938 261.486 33.2307 246.744 44.0933 233.849C54.9683 220.94 70.5176 210.237 87.4311 203.456L82.7046 191.668C64.139 199.112 46.7788 210.949 34.3803 225.667C21.9692 240.4 14.2684 258.375 15.9881 277.782C17.713 297.246 28.8045 316.921 51.5115 335.221C74.1577 353.471 108.666 370.637 158.176 385.338L161.791 373.163Z" fill="url(#paint0_linear_38_2)"/>
<path d="M337.234 402.537C332.09 403.638 327.027 400.36 325.926 395.216C324.825 390.072 328.102 385.01 333.246 383.909L337.234 402.537ZM333.246 383.909C397.689 370.115 442.016 353.151 471.185 335.373C500.383 317.577 513.543 299.519 517.555 283.743C521.517 268.169 517.064 252.821 506.645 239.082C496.149 225.241 479.928 213.589 462.004 206.402L469.094 188.721C489.659 196.967 508.902 210.53 521.824 227.571C534.825 244.714 541.747 265.915 536.017 288.439C530.339 310.763 512.743 332.353 481.099 351.64C449.426 370.944 402.825 388.497 337.234 402.537L333.246 383.909Z" fill="url(#paint1_linear_38_2)"/>
<path d="M273.081 73L111.977 167.363L274.344 261.726L437.976 166.096L273.081 73Z" stroke="url(#paint2_linear_38_2)" stroke-width="13.1337"/>
<path d="M283.505 282.729L284.477 469.768L447.184 375.995L446.382 186.128L283.505 282.729Z" stroke="url(#paint3_linear_38_2)" stroke-width="13.1337"/>
<path d="M264.599 279.988L102.524 187.312L102.184 375.448L266.618 469.685L264.599 279.988Z" stroke="url(#paint4_linear_38_2)" stroke-width="13.1337"/>
<defs>
<linearGradient id="paint0_linear_38_2" x1="118.739" y1="197.562" x2="118.739" y2="393.223" gradientUnits="userSpaceOnUse">
<stop stop-color="#9334E9" stop-opacity="0"/>
<stop offset="1" stop-color="#9334E9"/>
</linearGradient>
<linearGradient id="paint1_linear_38_2" x1="431.879" y1="197.562" x2="431.879" y2="393.223" gradientUnits="userSpaceOnUse">
<stop stop-color="#7B33BC" stop-opacity="0"/>
<stop offset="1" stop-color="#7B33BC"/>
</linearGradient>
<linearGradient id="paint2_linear_38_2" x1="274.976" y1="73" x2="274.976" y2="261.726" gradientUnits="userSpaceOnUse">
<stop stop-color="#DDDDDD"/>
<stop offset="1" stop-color="#DDDDDD" stop-opacity="0.1"/>
</linearGradient>
<linearGradient id="paint3_linear_38_2" x1="284.453" y1="281.083" x2="447.697" y2="375.105" gradientUnits="userSpaceOnUse">
<stop stop-color="#DDDDDD"/>
<stop offset="1" stop-color="#DDDDDD" stop-opacity="0.1"/>
</linearGradient>
<linearGradient id="paint4_linear_38_2" x1="265.547" y1="281.634" x2="102.303" y2="375.655" gradientUnits="userSpaceOnUse">
<stop stop-color="#DDDDDD"/>
<stop offset="1" stop-color="#DDDDDD" stop-opacity="0.1"/>
</linearGradient>
</defs>
</svg>
